<?xml version="1.0" encoding="UTF-8" standalone="no"?>
<!-- Created with Inkscape (http://www.inkscape.org/) -->

<svg
   width="4.2333331mm"
   height="5.291667mm"
   viewBox="0 0 4.2333331 5.291667"
   version="1.1"
   id="svg955"
   inkscape:version="1.1 (c68e22c387, 2021-05-23)"
   sodipodi:docname="place.svg"
   xmlns:inkscape="http://www.inkscape.org/namespaces/inkscape"
   xmlns:sodipodi="http://sodipodi.sourceforge.net/DTD/sodipodi-0.dtd"
   xmlns="http://www.w3.org/2000/svg"
   xmlns:svg="http://www.w3.org/2000/svg">
  <sodipodi:namedview
     id="namedview957"
     pagecolor="#ffffff"
     bordercolor="#666666"
     borderopacity="1.0"
     inkscape:pageshadow="2"
     inkscape:pageopacity="0.0"
     inkscape:pagecheckerboard="0"
     inkscape:document-units="mm"
     showgrid="false"
     fit-margin-top="0"
     fit-margin-left="0"
     fit-margin-right="0"
     fit-margin-bottom="0"
     inkscape:zoom="40.216913"
     inkscape:cx="7.9444188"
     inkscape:cy="10.008227"
     inkscape:window-width="1920"
     inkscape:window-height="1017"
     inkscape:window-x="1432"
     inkscape:window-y="-8"
     inkscape:window-maximized="1"
     inkscape:current-layer="layer1" />
  <defs
     id="defs952" />
  <g
     inkscape:label="Layer 1"
     inkscape:groupmode="layer"
     id="layer1"
     transform="translate(30.317467,-58.751044)">
    <path
       d="m -28.2008,61.396876 c -0.291042,0 -0.529167,-0.238124 -0.529167,-0.529165 0,-0.291041 0.238125,-0.529167 0.529167,-0.529167 0.291041,0 0.529167,0.238126 0.529167,0.529167 0,0.291041 -0.238126,0.529165 -0.529167,0.529165 z m 1.5875,-0.476249 c 0,-0.960437 -0.701146,-1.640416 -1.5875,-1.640416 -0.886354,0 -1.5875,0.679979 -1.5875,1.640416 0,0.619125 0.515938,1.439334 1.5875,2.418291 1.071561,-0.978957 1.5875,-1.799166 1.5875,-2.418291 z m -1.5875,-2.169583 c 1.11125,0 2.116666,0.851957 2.116666,2.169583 0,0.878417 -0.706438,1.918228 -2.116666,3.122084 -1.410229,-1.203856 -2.116667,-2.243667 -2.116667,-3.122084 0,-1.317626 1.005416,-2.169583 2.116667,-2.169583 z"
       id="path4"
       style="fill:#ff5f5f;fill-opacity:1;stroke:none;stroke-width:0.0264583;stroke-miterlimit:4;stroke-dasharray:none;stroke-opacity:1" />
  </g>
</svg>
