<?xml version="1.0" encoding="UTF-8" standalone="no"?>
<!-- Generator: Adobe Illustrator 18.0.0, SVG Export Plug-In . SVG Version: 6.00 Build 0)  -->

<svg
   version="1.1"
   id="Capa_1"
   x="0px"
   y="0px"
   viewBox="0 0 24.000001 24.000001"
   xml:space="preserve"
   sodipodi:docname="calendar-goto-today.svg"
   width="24"
   height="24"
   inkscape:version="1.2.1 (9c6d41e410, 2022-07-14)"
   xmlns:inkscape="http://www.inkscape.org/namespaces/inkscape"
   xmlns:sodipodi="http://sodipodi.sourceforge.net/DTD/sodipodi-0.dtd"
   xmlns="http://www.w3.org/2000/svg"
   xmlns:svg="http://www.w3.org/2000/svg"><defs
   id="defs37" /><sodipodi:namedview
   id="namedview35"
   pagecolor="#ffffff"
   bordercolor="#000000"
   borderopacity="0.25"
   inkscape:showpageshadow="2"
   inkscape:pageopacity="0.0"
   inkscape:pagecheckerboard="true"
   inkscape:deskcolor="#d1d1d1"
   showgrid="false"
   inkscape:zoom="33.916667"
   inkscape:cx="11.985258"
   inkscape:cy="12"
   inkscape:window-width="1920"
   inkscape:window-height="1017"
   inkscape:window-x="-8"
   inkscape:window-y="-8"
   inkscape:window-maximized="1"
   inkscape:current-layer="Capa_1" />
<path
   d="M 23.770996,13.262767 18.390791,7.0295419 V 0.90572873 C 18.390791,0.40552495 18.040894,0 17.609072,0 17.177251,0 16.827354,0.40552495 16.827354,0.90572873 V 5.2180844 L 12.552291,0.26531814 c -0.305183,-0.35371726 -0.800167,-0.3535965 -1.105455,0 L 0.22896539,13.262767 c -0.30528719,0.353717 -0.30528719,0.927225 0,1.280821 0.30539142,0.353717 0.80027141,0.353717 1.10566281,0 L 3.285798,12.282889 V 23.094271 C 3.285798,23.594475 3.6356952,24 4.0675166,24 H 19.932757 c 0.431821,0 0.781719,-0.405525 0.781719,-0.905729 V 12.28301 l 1.951274,2.260578 c 0.152591,0.176798 0.352711,0.265198 0.552727,0.265198 0.200016,0 0.400135,-0.0884 0.552831,-0.265319 0.304975,-0.353596 0.304975,-0.926983 -3.12e-4,-1.2807 z m -4.620062,8.925896 H 4.849131 v -11.71711 l 7.150537,-8.2848823 7.151266,8.2851233 z"
   id="path2"
   style="stroke-width:0.112192;fill:#f9f9f9" />
<g
   id="g4"
   transform="translate(-2.499975e-4,-15.763)">
</g>
<g
   id="g6"
   transform="translate(-2.499975e-4,-15.763)">
</g>
<g
   id="g8"
   transform="translate(-2.499975e-4,-15.763)">
</g>
<g
   id="g10"
   transform="translate(-2.499975e-4,-15.763)">
</g>
<g
   id="g12"
   transform="translate(-2.499975e-4,-15.763)">
</g>
<g
   id="g14"
   transform="translate(-2.499975e-4,-15.763)">
</g>
<g
   id="g16"
   transform="translate(-2.499975e-4,-15.763)">
</g>
<g
   id="g18"
   transform="translate(-2.499975e-4,-15.763)">
</g>
<g
   id="g20"
   transform="translate(-2.499975e-4,-15.763)">
</g>
<g
   id="g22"
   transform="translate(-2.499975e-4,-15.763)">
</g>
<g
   id="g24"
   transform="translate(-2.499975e-4,-15.763)">
</g>
<g
   id="g26"
   transform="translate(-2.499975e-4,-15.763)">
</g>
<g
   id="g28"
   transform="translate(-2.499975e-4,-15.763)">
</g>
<g
   id="g30"
   transform="translate(-2.499975e-4,-15.763)">
</g>
<g
   id="g32"
   transform="translate(-2.499975e-4,-15.763)">
</g>
</svg>
