<?xml version="1.0" encoding="UTF-8" standalone="no"?>
<!-- Generator: Adobe Illustrator 19.0.0, SVG Export Plug-In . SVG Version: 6.00 Build 0)  -->

<svg
   version="1.1"
   id="Layer_1"
   x="0px"
   y="0px"
   viewBox="0 0 36 36"
   xml:space="preserve"
   sodipodi:docname="login.svg"
   width="36"
   height="36"
   inkscape:version="1.2.1 (9c6d41e410, 2022-07-14)"
   xmlns:inkscape="http://www.inkscape.org/namespaces/inkscape"
   xmlns:sodipodi="http://sodipodi.sourceforge.net/DTD/sodipodi-0.dtd"
   xmlns="http://www.w3.org/2000/svg"
   xmlns:svg="http://www.w3.org/2000/svg"><defs
   id="defs67" /><sodipodi:namedview
   id="namedview65"
   pagecolor="#ffffff"
   bordercolor="#000000"
   borderopacity="0.25"
   inkscape:showpageshadow="2"
   inkscape:pageopacity="0.0"
   inkscape:pagecheckerboard="true"
   inkscape:deskcolor="#d1d1d1"
   showgrid="false"
   inkscape:zoom="22.611111"
   inkscape:cx="17.977887"
   inkscape:cy="18"
   inkscape:window-width="1920"
   inkscape:window-height="1017"
   inkscape:window-x="1352"
   inkscape:window-y="-8"
   inkscape:window-maximized="1"
   inkscape:current-layer="Layer_1" />





















<g
   id="g445"
   transform="scale(1.5)"><path
     style="fill:#ffe477;stroke-width:0.0603254"
     d="M 21.637024,9.8035973 V 6.1059494 c 0,-3.1706312 -4.272253,-5.75016746 -9.523483,-5.75016746 -5.2512299,0 -9.5234828,2.57953626 -9.5234828,5.75016746 v 3.6976479 h 2.082636 V 6.1059494 c 0,-2.4773017 3.3379935,-4.4926962 7.4408468,-4.4926962 4.102854,0 7.440847,2.0154414 7.440847,4.4926962 v 3.6976479 z"
     id="path2" /><path
     style="fill:#ffda44;stroke-width:0.0603254"
     d="M 21.603874,23.644265 H 2.3963589 c -0.993883,0 -1.80703177,-0.49097 -1.80703177,-1.091065 V 9.9459101 c 0,-0.600095 0.81314877,-1.0910647 1.80703177,-1.0910647 H 21.603952 c 0.993883,0 1.807031,0.4909697 1.807031,1.0910647 V 22.553247 c -7.7e-5,0.600048 -0.813226,1.091018 -1.807109,1.091018 z"
     id="path4" /><g
     id="g18"
     transform="matrix(0.07763498,0,0,0.04687509,-7.874516,0)">
	<rect
   x="109.022"
   y="236.50101"
   style="fill:#3e3b43"
   width="78.630997"
   height="55.501999"
   id="rect6" />
	<rect
   x="187.653"
   y="254.22"
   style="fill:#3e3b43"
   width="215.33"
   height="20.058001"
   id="rect8" />
	<rect
   x="187.653"
   y="332.91199"
   style="fill:#3e3b43"
   width="215.33"
   height="20.058001"
   id="rect10" />
	<rect
   x="187.653"
   y="412.54501"
   style="fill:#3e3b43"
   width="215.33"
   height="20.058001"
   id="rect12" />
	<rect
   x="109.022"
   y="315.19199"
   style="fill:#3e3b43"
   width="78.630997"
   height="55.501999"
   id="rect14" />
	<rect
   x="109.022"
   y="394.82501"
   style="fill:#3e3b43"
   width="78.630997"
   height="55.501999"
   id="rect16" />
</g><g
     style="opacity:0.12"
     id="g22"
     transform="matrix(0.07763498,0,0,0.04687509,-7.874516,0)">
	<path
   style="fill:#3e3b43"
   d="m 109.021,346.656 v 134.478 c 0,12.802 10.474,23.276 23.276,23.276 h 247.409 c 12.802,0 23.276,-10.474 23.276,-23.276 V 346.656 Z"
   id="path20" />
</g><g
     id="g28"
     transform="matrix(0.07763498,0,0,0.04687509,-7.874516,0)">
	<rect
   x="134.797"
   y="168.485"
   style="fill:#ffcd00"
   width="26.826"
   height="20.422001"
   id="rect24" />
	<rect
   x="353.30499"
   y="168.485"
   style="fill:#ffcd00"
   width="26.826"
   height="20.422001"
   id="rect26" />
</g><path
     style="opacity:0.1;fill:#3e3b43;stroke-width:0.0603254;enable-background:new"
     d="m 21.499222,8.8548454 h -3.613986 c 0.993883,0 1.807032,0.4909697 1.807032,1.0910647 v 1.9709099 0.940221 2.748286 0.644298 0.295876 2.792584 0.94022 2.274989 c 0,0.075 -0.01273,0.148266 -0.03688,0.219141 -0.0061,0.01772 -0.01281,0.0353 -0.02026,0.05264 -0.02989,0.06961 -0.07088,0.1365 -0.12181,0.20011 -0.0382,0.04767 -0.0819,0.09347 -0.130815,0.137015 -0.04883,0.04355 -0.102788,0.08484 -0.161248,0.123657 -0.07794,0.05175 -0.163887,0.09895 -0.256738,0.140953 -0.105506,0.04772 -0.220173,0.08836 -0.341439,0.121454 -0.01964,0.0053 -0.03952,0.01059 -0.05955,0.01552 -0.20977,0.05175 -0.438715,0.08053 -0.678375,0.08053 h 3.613986 c 0.23966,0 0.468527,-0.02878 0.678375,-0.08053 0.02003,-0.0049 0.0399,-0.01017 0.05955,-0.01552 0.121421,-0.03305 0.235933,-0.07373 0.341438,-0.121454 0.09285,-0.042 0.178794,-0.08925 0.256739,-0.140953 0.05846,-0.03881 0.112338,-0.08011 0.161248,-0.123657 0.04883,-0.04355 0.09262,-0.08934 0.130815,-0.137015 0.05093,-0.06356 0.09192,-0.130501 0.121809,-0.20011 0.0075,-0.01739 0.01421,-0.03497 0.02026,-0.05264 0.02422,-0.07088 0.03688,-0.144141 0.03688,-0.219141 V 20.278305 19.338085 16.545501 16.249625 15.605327 12.857041 11.91682 9.9459101 c 0,-0.600095 -0.813149,-1.0910647 -1.807032,-1.0910647 z"
     id="path30" /><path
     d="M 22.226274,8.5488917 V 6.1059494 C 22.226274,2.7390991 17.689751,0 12.113619,0 6.5374864,0 2.0008863,2.7390991 2.0008863,6.1059026 V 8.519126 C 0.86718272,8.6333137 0,9.2294712 0,9.9458632 v 1.1948458 2.601708 1.081549 2.601709 1.081549 2.601708 1.444221 C 0,23.350921 1.0750116,24 2.3962036,24 H 21.603796 C 22.924988,24 24,23.350921 24,22.553153 V 20.278165 19.337944 16.49586 15.55564 12.802103 11.861976 9.9457694 C 24.000155,9.2780806 23.246708,8.7147826 22.226274,8.5488917 Z M 22.821656,19.922476 H 7.2830927 V 19.69382 H 22.821656 Z M 1.1785766,11.496491 h 4.9260171 v 0.365532 0.940174 0.584439 H 1.1785766 c 0,0 0,-1.890145 0,-1.890145 z M 22.821656,12.446462 H 7.2830927 v -0.22861 H 22.821656 Z M 6.6938432,14.098246 c 0.3255235,0 0.5892495,-0.159234 0.5892495,-0.355782 V 13.158026 H 22.821656 v 2.041926 H 7.2830927 v -0.375939 c 0,-0.196547 -0.263726,-0.355782 -0.5892495,-0.355782 H 1.1785766 V 14.098246 Z M 22.821656,16.140125 H 7.2830927 V 15.911469 H 22.821656 Z M 1.1785766,15.179795 h 4.9260171 v 0.375939 0.94022 0.574032 H 1.1785766 c 0,-4.6e-5 0,-1.890191 0,-1.890191 z m 0,3.683257 h 4.9260171 v 0.474986 0.94022 0.474986 H 1.1785766 c 0,0 0,-1.890192 0,-1.890192 z m 6.1045161,0.119157 v -0.474985 c 0,-0.196548 -0.263726,-0.355782 -0.5892495,-0.355782 H 1.1785766 v -0.369985 h 5.5152666 c 0.3255235,0 0.5892495,-0.159235 0.5892495,-0.355782 V 16.851642 H 22.821656 v 2.13052 H 7.2830927 Z M 12.113619,0.71156389 c 4.926327,0 8.934233,2.41987971 8.934233,5.39438551 V 8.4991103 H 20.143715 V 6.1059494 c 0,-2.6734271 -3.602263,-4.8484782 -8.030096,-4.8484782 -4.4278336,0 -8.0300967,2.1749574 -8.0300967,4.8484314 V 8.4990635 H 3.1793853 V 6.1059026 c 0,-2.974459 4.0078282,-5.39433871 8.9342337,-5.39433871 z M 5.2620213,8.4990635 V 6.1059026 c 0,-2.2810826 3.0736465,-4.1369144 6.8515977,-4.1369144 3.777951,0 6.851597,1.8558318 6.851597,4.1369144 V 8.4990635 Z M 2.3963589,9.2106274 H 21.603952 c 0.671465,0 1.217782,0.3298131 1.217782,0.7352827 V 11.506335 H 7.2830927 v -0.365532 c 0,-0.196547 -0.263726,-0.355782 -0.5892495,-0.355782 H 1.1785766 V 9.9459569 c 0,-0.4055164 0.5462397,-0.7353295 1.2177823,-0.7353295 z M 21.603874,23.288483 H 2.3963589 c -0.6714649,0 -1.2177823,-0.329813 -1.2177823,-0.735283 v -1.088439 h 5.5152666 c 0.3255235,0 0.5892495,-0.159235 0.5892495,-0.355782 V 20.633993 H 22.821656 V 22.5532 c 0,0.405423 -0.546239,0.735283 -1.217782,0.735283 z"
     id="path32"
     style="stroke-width:0.0603254" /><g
     id="g34"
     transform="matrix(0.07763498,0,0,0.04687509,-7.874516,0)">
</g><g
     id="g36"
     transform="matrix(0.07763498,0,0,0.04687509,-7.874516,0)">
</g><g
     id="g38"
     transform="matrix(0.07763498,0,0,0.04687509,-7.874516,0)">
</g><g
     id="g40"
     transform="matrix(0.07763498,0,0,0.04687509,-7.874516,0)">
</g><g
     id="g42"
     transform="matrix(0.07763498,0,0,0.04687509,-7.874516,0)">
</g><g
     id="g44"
     transform="matrix(0.07763498,0,0,0.04687509,-7.874516,0)">
</g><g
     id="g46"
     transform="matrix(0.07763498,0,0,0.04687509,-7.874516,0)">
</g><g
     id="g48"
     transform="matrix(0.07763498,0,0,0.04687509,-7.874516,0)">
</g><g
     id="g50"
     transform="matrix(0.07763498,0,0,0.04687509,-7.874516,0)">
</g><g
     id="g52"
     transform="matrix(0.07763498,0,0,0.04687509,-7.874516,0)">
</g><g
     id="g54"
     transform="matrix(0.07763498,0,0,0.04687509,-7.874516,0)">
</g><g
     id="g56"
     transform="matrix(0.07763498,0,0,0.04687509,-7.874516,0)">
</g><g
     id="g58"
     transform="matrix(0.07763498,0,0,0.04687509,-7.874516,0)">
</g><g
     id="g60"
     transform="matrix(0.07763498,0,0,0.04687509,-7.874516,0)">
</g><g
     id="g62"
     transform="matrix(0.07763498,0,0,0.04687509,-7.874516,0)">
</g></g>
</svg>
