<?xml version="1.0" encoding="UTF-8" standalone="no"?>
<!-- Uploaded to: SVG Repo, www.svgrepo.com, Generator: SVG Repo Mixer Tools -->

<svg
   height="20"
   width="24"
   version="1.1"
   id="Layer_1"
   viewBox="0 0 15.36 12.8"
   xml:space="preserve"
   sodipodi:docname="ticket.svg"
   inkscape:version="1.2.1 (9c6d41e410, 2022-07-14)"
   xmlns:inkscape="http://www.inkscape.org/namespaces/inkscape"
   xmlns:sodipodi="http://sodipodi.sourceforge.net/DTD/sodipodi-0.dtd"
   xmlns="http://www.w3.org/2000/svg"
   xmlns:svg="http://www.w3.org/2000/svg"><defs
   id="defs39">
	
	
	
	
	
	
	
	
	
	
	
</defs><sodipodi:namedview
   id="namedview37"
   pagecolor="#ffffff"
   bordercolor="#000000"
   borderopacity="0.25"
   inkscape:showpageshadow="2"
   inkscape:pageopacity="0.0"
   inkscape:pagecheckerboard="true"
   inkscape:deskcolor="#d1d1d1"
   showgrid="false"
   inkscape:zoom="37.1"
   inkscape:cx="11.145553"
   inkscape:cy="10"
   inkscape:window-width="1680"
   inkscape:window-height="987"
   inkscape:window-x="-8"
   inkscape:window-y="-8"
   inkscape:window-maximized="1"
   inkscape:current-layer="Layer_1" />
<path
   style="fill:#f4a58c;stroke-width:0.0349542"
   d="M 15.359938,3.8174636 V 0.51016522 C 15.359938,0.22844043 15.180606,0 14.959236,0 h -1.306006 -0.818008 -2.51375 v 12.799961 h 0.821571 c -1.24e-4,-0.0097 -5.89e-4,-0.01917 -5.89e-4,-0.02883 1.550258,-0.875713 1.798336,-0.915161 3.455794,0 0,0.0097 -4.64e-4,0.01917 -5.88e-4,0.02883 h 0.361638 c 0.221339,0 0.400702,-0.228441 0.400702,-0.510166 V 8.982497 c -1.12023,0 -2.028385,-1.1562036 -2.028385,-2.5825759 -6.2e-5,-1.4262145 0.908062,-2.5824575 2.028323,-2.5824575 z"
   id="path2"
   sodipodi:nodetypes="cssccccccccssccc" />
<path
   style="fill:#fc7a4c;stroke-width:0.0349542"
   d="M 0,0.51016522 V 3.8174636 c 1.1202924,0 2.0284466,1.156243 2.0284466,2.582497 C 2.0284466,7.8262934 1.1203233,8.9825364 0,8.9825364 V 12.289835 C 0,12.57156 0.17942521,12.8 0.40070185,12.8 H 10.321441 V 3.9440682e-5 H 0.40070185 C 0.17942521,3.9440682e-5 0,0.22844043 0,0.51016522 Z"
   id="path4" />
<path
   style="fill:#f26438;stroke-width:0.0349542"
   d="M 3.9067733,4.4412969 C 3.9067733,2.8450141 4.2025523,1.3369602 4.7274144,0 H 0.39816164 C 0.17831,3.9440682e-5 0,0.22844043 0,0.51016522 V 3.4796936 c 0,0.1525171 0.09057999,0.2804232 0.20978376,0.2960023 1.03680634,0.1359915 1.81866284,1.24037 1.81866284,2.5688111 0,1.328441 -0.7818875,2.432859 -1.81869382,2.5688899 C 0.09057999,8.9290548 0,9.0568821 0,9.2093992 v 3.0249818 c 0,0.281291 0.17973499,0.510165 0.40070185,0.510165 H 7.4166241 C 5.3019654,10.964391 3.9067733,7.9105387 3.9067733,4.4412969 Z"
   id="path6" />


<path
   style="fill:#231f20;stroke-width:0.0349542"
   d="m 10.571868,3.82618 c 0,-0.1761421 -0.112078,-0.3188385 -0.250427,-0.3188385 -0.138348,0 -0.250427,0.1426964 -0.250427,0.3188385 v 0.8502622 c 0,0.1761421 0.112079,0.3188385 0.250427,0.3188385 0.138349,0 0.250427,-0.1426964 0.250427,-0.3188385 z"
   id="path12" /><path
   style="fill:#231f20;stroke-width:0.0349542"
   d="m 10.571868,1.9131097 c 0,-0.1761421 -0.112078,-0.3188385 -0.250427,-0.3188385 -0.138348,0 -0.250427,0.1426964 -0.250427,0.3188385 v 0.8502622 c 0,0.1761421 0.112079,0.3188385 0.250427,0.3188385 0.138349,0 0.250427,-0.1426964 0.250427,-0.3188385 z"
   id="path14" /><path
   style="fill:#231f20;stroke-width:0.0349542"
   d="m 10.321441,9.2465918 c -0.138348,0 -0.250427,0.1426963 -0.250427,0.3188384 v 0.8502618 c 0,0.176143 0.112079,0.318839 0.250427,0.318839 0.138349,0 0.250427,-0.142696 0.250427,-0.318839 V 9.5654302 c 0,-0.1761421 -0.112078,-0.3188384 -0.250427,-0.3188384 z"
   id="path16" /><path
   style="fill:#231f20;stroke-width:0.0349542"
   d="m 10.571868,7.65236 c 0,-0.1761421 -0.112078,-0.3188385 -0.250427,-0.3188385 -0.138348,0 -0.250427,0.1426964 -0.250427,0.3188385 v 0.8502622 c 0,0.1761421 0.112079,0.3188385 0.250427,0.3188385 0.138349,0 0.250427,-0.1426964 0.250427,-0.3188385 z"
   id="path18" /><path
   style="fill:#231f20;stroke-width:0.0349542"
   d="m 10.571868,5.7392503 c 0,-0.1761421 -0.112078,-0.3188385 -0.250427,-0.3188385 -0.138348,0 -0.250427,0.1426964 -0.250427,0.3188385 v 0.8502622 c 0,0.1761421 0.112079,0.3188384 0.250427,0.3188384 0.138349,0 0.250427,-0.1426963 0.250427,-0.3188384 z"
   id="path20" /><path
   style="fill:#231f20;stroke-width:0.0349542"
   d="M 8.4176507,8.0972509 H 3.7762625 c -0.1383482,0 -0.250427,0.1426963 -0.250427,0.3188384 0,0.1761421 0.1120788,0.3188385 0.250427,0.3188385 h 4.6413573 c 0.1383482,0 0.250427,-0.1426964 0.250427,-0.3188385 C 8.6680778,8.2399472 8.555937,8.0972509 8.4176507,8.0972509 Z"
   id="path22" /><path
   style="fill:#231f20;stroke-width:0.0349542"
   d="M 8.4176507,6.75469 H 3.7762625 c -0.1383482,0 -0.250427,0.1426964 -0.250427,0.3188385 0,0.1761421 0.1120788,0.3188385 0.250427,0.3188385 h 4.6413573 c 0.1383482,0 0.250427,-0.1426964 0.250427,-0.3188385 0,-0.1761421 -0.1121098,-0.3188385 -0.2503961,-0.3188385 z"
   id="path24" /><path
   style="fill:#231f20;stroke-width:0.0349542"
   d="M 8.4176507,5.4121292 H 3.7762625 c -0.1383482,0 -0.250427,0.1426964 -0.250427,0.3188385 0,0.1761421 0.1120788,0.3188385 0.250427,0.3188385 h 4.6413573 c 0.1383482,0 0.250427,-0.1426964 0.250427,-0.3188385 0,-0.1761421 -0.1121098,-0.3188385 -0.2503961,-0.3188385 z"
   id="path26" /><path
   style="fill:#231f20;stroke-width:0.0349542"
   d="m 3.7762625,4.7072059 h 2.4663842 c 0.1383482,0 0.250427,-0.1426964 0.250427,-0.3188384 0,-0.1761421 -0.1120788,-0.3188385 -0.250427,-0.3188385 H 3.7762625 c -0.1383482,0 -0.250427,0.1426964 -0.250427,0.3188385 0,0.176142 0.1121098,0.3188384 0.250427,0.3188384 z"
   id="path28" />
</svg>
