<?xml version="1.0" encoding="UTF-8" standalone="no"?>
<svg
   enable-background="new 0 0 512 512"
   height="25"
   id="pilot_x5F_captain"
   version="1.1"
   viewBox="0 0 24.923819 25"
   width="24.923819"
   xml:space="preserve"
   sodipodi:docname="crew.svg"
   inkscape:version="1.2.1 (9c6d41e410, 2022-07-14)"
   xmlns:inkscape="http://www.inkscape.org/namespaces/inkscape"
   xmlns:sodipodi="http://sodipodi.sourceforge.net/DTD/sodipodi-0.dtd"
   xmlns="http://www.w3.org/2000/svg"
   xmlns:svg="http://www.w3.org/2000/svg"><defs
     id="defs13" /><sodipodi:namedview
     id="namedview11"
     pagecolor="#ffffff"
     bordercolor="#666666"
     borderopacity="1.0"
     inkscape:pageshadow="2"
     inkscape:pageopacity="0.0"
     inkscape:pagecheckerboard="0"
     showgrid="false"
     inkscape:zoom="32.56"
     inkscape:cx="12.469287"
     inkscape:cy="12.5"
     inkscape:window-width="1920"
     inkscape:window-height="1017"
     inkscape:window-x="-8"
     inkscape:window-y="-8"
     inkscape:window-maximized="1"
     inkscape:current-layer="pilot_x5F_captain"
     inkscape:showpageshadow="2"
     inkscape:deskcolor="#d1d1d1" /><path
     d="m 12.461909,16.08808 0.748385,-0.350568 1.745975,-0.817896 v -1.336471 c 1.634526,-0.537907 2.839179,-1.58839 3.172078,-2.846419 h 0.598282 c 0.946591,0 1.713878,-0.524863 1.713878,-1.1722502 V 9.4620422 c 0,-0.6474455 -0.767287,-1.1723084 -1.713878,-1.1723084 H 18.222342 V 7.5387483 c -2.445233,0.5385478 -5.024989,0.5776807 -5.708583,0.5776807 -0.08931,0 -0.146016,-6.424e-4 -0.166108,-9.317e-4 -2.462432,0 -4.2938037,-0.1969473 -5.6461746,-0.4609216 V 8.2896754 H 6.1840778 c -0.9465916,0 -1.7138773,0.5248629 -1.7138773,1.1723083 v 0.1024337 c 0,0.6473876 0.7672857,1.1722506 1.7138773,1.1722506 h 0.6114787 c 0.3328992,1.258029 1.5375515,2.308512 3.1720777,2.846419 v 1.33647 z m 2.49436,-7.2294003 c 0.309656,0 0.56065,0.1716735 0.56065,0.3834706 0,0.2117393 -0.250994,0.3834128 -0.56065,0.3834128 -0.309571,0 -0.560565,-0.1716735 -0.560565,-0.3834128 0,-0.2117971 0.250994,-0.3834706 0.560565,-0.3834706 z m -4.9887198,0 c 0.3096558,0 0.5605648,0.1716735 0.5605648,0.3834706 0,0.2117393 -0.250909,0.3834128 -0.5605648,0.3834128 -0.3096557,0 -0.5606498,-0.1716735 -0.5606498,-0.3834128 0,-0.2117971 0.2509941,-0.3834706 0.5606498,-0.3834706 z M 9.5711353,10.917892 c 0,-0.117691 0.1395452,-0.213078 0.3115292,-0.213078 h 5.1584895 c 0.172069,0 0.311529,0.09544 0.311529,0.213078 0,1.092004 -1.29422,1.977219 -2.890774,1.977219 -1.596554,0 -2.8907737,-0.885215 -2.8907737,-1.977219 z"
     id="path2"
     style="fill:#fcfcfc;stroke:#fcfcfc;stroke-width:0.267573;stroke-miterlimit:4;stroke-dasharray:none" /><path
     d="m 24.765727,24.866214 c 0,0 -0.52404,-3.124778 -1.84295,-5.945167 -0.542261,-1.159555 -1.708259,-2.134741 -3.260624,-2.730475 -0.516207,-0.198112 -1.088607,-0.408103 -1.681695,-0.608603 l -0.09706,0.15595 -3.3066,5.31589 -0.918155,-3.396323 c -0.05287,-0.195607 -0.302501,-0.337699 -0.593425,-0.337699 h -1.206526 c -0.29101,0 -0.540642,0.142033 -0.593514,0.337699 l -0.918155,3.396323 -3.3065994,-5.31589 -0.097061,-0.15595 c -0.593091,0.2005 -1.1654903,0.410491 -1.6816968,0.608603 -1.5522808,0.595676 -2.7182794,1.57092 -3.260539,2.730475 -1.31899583,2.820389 -1.84303538,5.945167 -1.84303538,5.945167 H 12.461909 Z m -8.289445,-4.102352 h 1.274041 c 0.208424,0 0.387815,0.08892 0.474403,0.218669 0.223834,0.33502 0.940206,0.369961 0.940206,0.369961 0,0 0.716287,-0.03494 0.940121,-0.369961 0.08676,-0.129745 0.265978,-0.218669 0.474403,-0.218669 h 1.274126 c 0.175816,0 0.274664,0.138423 0.16645,0.233286 l -0.583723,0.511585 c -0.134608,0.118041 -0.341329,0.187106 -0.560224,0.187106 h -0.457886 c -0.237542,0 -0.468187,0.05433 -0.655326,0.15432 l -0.395137,0.211331 c -0.119111,0.06371 -0.286497,0.06371 -0.405694,0 l -0.395137,-0.211331 c -0.187139,-0.100046 -0.417784,-0.15432 -0.655241,-0.15432 h -0.45797 c -0.218811,0 -0.425532,-0.06906 -0.560225,-0.187106 l -0.583637,-0.511585 c -0.108129,-0.09486 -0.0093,-0.233286 0.16645,-0.233286 z"
     id="path4"
     style="fill:#fcfcfc;stroke:#fcfcfc;stroke-width:0.267573;stroke-miterlimit:4;stroke-dasharray:none" /><path
     d="M 2.8645366,5.5831342 C 4.8333245,5.1775927 8.4460894,4.5595553 12.227007,4.5455209 V 4.544764 c 0.02188,0 0.04384,3.472e-4 0.06564,3.472e-4 0.02171,0 0.04326,-3.472e-4 0.06496,-3.472e-4 v 7.569e-4 c 3.83447,0.013801 7.498405,0.632887 9.49265,1.038545 C 21.896737,5.5044019 21.933607,5.426543 21.961621,5.35113 22.150465,4.8437372 21.817565,4.3097315 21.202512,4.1022438 20.647906,3.9150797 19.689395,3.4219543 18.238176,2.1391759 c -0.02537,-0.02242 -0.05083,-0.044665 -0.07628,-0.066678 -2.998648,-2.58494855 -8.6097439,-2.58494855 -11.6083908,0 -0.025542,0.022013 -0.050999,0.044258 -0.076286,0.066678 C 5.0259973,3.4219543 4.067401,3.9150797 3.512796,4.1022438 2.8977413,4.3097315 2.5649273,4.8437372 2.7536837,5.35113 c 0.027926,0.075064 0.064537,0.152573 0.1108529,0.2320042 z m 6.5986406,-3.768671 h 1.3715268 c 0.224431,0 0.417359,0.110994 0.510673,0.2728845 0.241033,0.4180036 1.012235,0.4615626 1.012235,0.4615626 0,0 0.771202,-0.043559 1.012149,-0.4615626 0.09331,-0.1618322 0.286243,-0.2728845 0.510758,-0.2728845 h 1.371443 c 0.189352,0 0.295693,0.172722 0.179221,0.2909953 l -0.628422,0.6384774 c -0.144994,0.1472156 -0.367467,0.2333437 -0.603135,0.2333437 h -0.492963 c -0.255678,0 -0.504032,0.067842 -0.705389,0.1926962 l -0.425362,0.2636253 c -0.128306,0.079489 -0.308379,0.079489 -0.436686,0 L 11.713865,3.1699758 C 11.512423,3.0451221 11.264068,2.9772796 11.008391,2.9772796 h -0.492963 c -0.235669,0 -0.458141,-0.086128 -0.603135,-0.2333437 L 9.2838715,2.1054585 C 9.1675696,1.9871852 9.2739101,1.8144632 9.4631772,1.8144632 Z"
     id="path6"
     style="fill:#fcfcfc;stroke:#fcfcfc;stroke-width:0.267573;stroke-miterlimit:4;stroke-dasharray:none" /><path
     d="M 18.222342,5.8326668 C 18.168102,5.8284768 18.112767,5.8242768 18.05751,5.8200878 16.461978,5.6993692 14.463987,5.5954798 12.29265,5.5933833 8.8080215,5.5967612 5.7741265,5.8690631 4.1693992,6.04592 c 0.2967996,0.1950833 1.0358188,0.5861828 2.531992,0.9054215 1.2729349,0.2716038 3.0923865,0.4906796 5.6562208,0.4906796 0.04904,4.63e-4 3.160924,0.031039 5.86473,-0.6154166 C 19.03654,6.6319286 19.812936,6.3758738 20.4583,6.0388733 19.874918,5.9760974 19.115721,5.9020815 18.222342,5.8326668 Z"
     id="path8"
     style="fill:#fcfcfc;stroke:#fcfcfc;stroke-width:0.267573;stroke-miterlimit:4;stroke-dasharray:none" /></svg>
