<?xml version="1.0" encoding="UTF-8" standalone="no"?>
<svg
   viewBox="0 0 25 25"
   version="1.1"
   id="svg2229"
   sodipodi:docname="customer.svg"
   width="25"
   height="25"
   inkscape:version="1.2.1 (9c6d41e410, 2022-07-14)"
   inkscape:export-filename="customer.svg"
   inkscape:export-xdpi="96"
   inkscape:export-ydpi="96"
   xmlns:inkscape="http://www.inkscape.org/namespaces/inkscape"
   xmlns:sodipodi="http://sodipodi.sourceforge.net/DTD/sodipodi-0.dtd"
   xmlns="http://www.w3.org/2000/svg"
   xmlns:svg="http://www.w3.org/2000/svg">
  <defs
     id="defs2233" />
  <sodipodi:namedview
     id="namedview2231"
     pagecolor="#ffffff"
     bordercolor="#000000"
     borderopacity="0.25"
     inkscape:showpageshadow="2"
     inkscape:pageopacity="0.0"
     inkscape:pagecheckerboard="0"
     inkscape:deskcolor="#d1d1d1"
     showgrid="false"
     inkscape:zoom="32.56"
     inkscape:cx="12.5"
     inkscape:cy="12.5"
     inkscape:window-width="1920"
     inkscape:window-height="1017"
     inkscape:window-x="1352"
     inkscape:window-y="-8"
     inkscape:window-maximized="1"
     inkscape:current-layer="svg2229" />
  <title
     id="title2224" />
  <g
     id="User"
     transform="matrix(0.44642857,0,0,0.44623882,-1.7857143,-1.7743292)"
     style="fill:#fcfcfc;fill-opacity:1">
    <path
       d="m 41.2452,33.0349 a 16,16 0 1 0 -18.49,0 A 26.0412,26.0412 0 0 0 4,58 2,2 0 0 0 6,60 H 58 A 2,2 0 0 0 60,58 26.0412,26.0412 0 0 0 41.2452,33.0349 Z M 20,20 A 12,12 0 1 1 32,32 12.0137,12.0137 0 0 1 20,20 Z M 8.09,56 A 22.0293,22.0293 0 0 1 30,36 h 4 a 22.0293,22.0293 0 0 1 21.91,20 z"
       id="path2226"
       style="fill:#fcfcfc;fill-opacity:1" />
  </g>
</svg>
