<?xml version="1.0" encoding="UTF-8" standalone="no"?>
<svg
   viewBox="0 0 25 25"
   version="1.1"
   id="svg11"
   sodipodi:docname="destination.svg"
   inkscape:version="1.2.1 (9c6d41e410, 2022-07-14)"
   width="25"
   height="25"
   inkscape:export-filename="destination.svg"
   inkscape:export-xdpi="96"
   inkscape:export-ydpi="96"
   xmlns:inkscape="http://www.inkscape.org/namespaces/inkscape"
   xmlns:sodipodi="http://sodipodi.sourceforge.net/DTD/sodipodi-0.dtd"
   xmlns="http://www.w3.org/2000/svg"
   xmlns:svg="http://www.w3.org/2000/svg"
   xmlns:rdf="http://www.w3.org/1999/02/22-rdf-syntax-ns#"
   xmlns:cc="http://creativecommons.org/ns#"
   xmlns:dc="http://purl.org/dc/elements/1.1/"
   xmlns:sketch="http://www.bohemiancoding.com/sketch/ns">
  <sodipodi:namedview
     id="namedview13"
     pagecolor="#ffffff"
     bordercolor="#000000"
     borderopacity="0.25"
     inkscape:showpageshadow="2"
     inkscape:pageopacity="0.0"
     inkscape:pagecheckerboard="0"
     inkscape:deskcolor="#d1d1d1"
     showgrid="false"
     inkscape:zoom="26.15625"
     inkscape:cx="8.0669056"
     inkscape:cy="13.151732"
     inkscape:window-width="1920"
     inkscape:window-height="1017"
     inkscape:window-x="1352"
     inkscape:window-y="-8"
     inkscape:window-maximized="1"
     inkscape:current-layer="svg11" />
  <!-- Generator: Sketch 3.0.3 (7891) - http://www.bohemiancoding.com/sketch -->
  <title
     id="title2">icon 40 checkered flag</title>
  <desc
     id="desc4">Created with Sketch.</desc>
  <defs
     id="defs6" />
  <g
     id="Page-1"
     stroke="none"
     stroke-width="1"
     fill="none"
     fill-rule="evenodd"
     sketch:type="MSPage"
     style="fill:#fcfcfc;fill-opacity:1"
     transform="matrix(1.4705882,0,0,0.96176322,-11.764706,-2.8852897)">
    <g
       id="icon-40-checkered-flag"
       sketch:type="MSArtboardGroup"
       fill="#000000"
       style="fill:#fcfcfc;fill-opacity:1">
      <path
         d="M 19,5.8132889 C 18.197655,5.6692889 17.335663,5.4210641 16.442505,5.0219387 15.571096,4.6325324 14.752474,4.3808099 14,4.2274632 v 0 3.9516647 C 11.227518,7.6848603 9.0001297,8.4116002 9,8.4116425 v 4.1568805 0 c 1.104e-4,-5.6e-5 1.960578,-0.993603 5,-0.367627 v 3.998609 c 0.804005,0.141783 1.653922,0.385285 2.508789,0.777573 0.88771,0.407358 1.723146,0.668095 2.491211,0.824819 v -0.0085 -3.995358 c 2.888336,0.519078 4.999878,-0.323514 5,-0.323563 h 0.01758 V 9.3888 L 24,9.4031882 c -1.12e-4,5.71e-5 -1.975598,1.0084108 -5,0.3901608 z M 8,11.993924 v 17 H 9 V 17.538762 c 1.377296,-0.495503 4.080524,-1.034031 7.5,0.455162 5.022644,2.187377 8.5,0 8.5,0 V 3.9939236 c 0,0 -3.476257,2.2363282 -8.5,0 -5.023743,-2.2363281 -8.5,0 -8.5,0 z m 6,-3.7930283 v 3.9782323 c 0.801335,0.142859 1.648208,0.38772 2.5,0.781612 0.891182,0.412107 1.72962,0.675127 2.5,0.832609 V 9.797991 C 18.195275,9.6533697 17.330251,9.4030494 16.433793,8.9993592 15.565663,8.6084254 14.749985,8.3553568 14,8.2008957 Z"
         id="checkered-flag"
         sketch:type="MSShapeGroup"
         style="fill:#fcfcfc;fill-opacity:1" />
    </g>
  </g>
  <metadata
     id="metadata1214">
    <rdf:RDF>
      <cc:Work
         rdf:about="">
        <dc:title>icon 40 checkered flag</dc:title>
      </cc:Work>
    </rdf:RDF>
  </metadata>
</svg>
