<?xml version="1.0" encoding="UTF-8" standalone="no"?>
<svg
   enable-background="new 0 0 50 50"
   height="24.958241"
   id="Layer_1"
   version="1.1"
   viewBox="0 0 24.999994 24.958241"
   width="24.999994"
   xml:space="preserve"
   sodipodi:docname="ship.svg"
   inkscape:version="1.2.1 (9c6d41e410, 2022-07-14)"
   xmlns:inkscape="http://www.inkscape.org/namespaces/inkscape"
   xmlns:sodipodi="http://sodipodi.sourceforge.net/DTD/sodipodi-0.dtd"
   xmlns="http://www.w3.org/2000/svg"
   xmlns:svg="http://www.w3.org/2000/svg"><defs
     id="defs21" /><sodipodi:namedview
     id="namedview19"
     pagecolor="#ffffff"
     bordercolor="#666666"
     borderopacity="1.0"
     inkscape:pageshadow="2"
     inkscape:pageopacity="0.0"
     inkscape:pagecheckerboard="0"
     showgrid="false"
     inkscape:zoom="32.614478"
     inkscape:cx="12.509782"
     inkscape:cy="12.47912"
     inkscape:window-width="1920"
     inkscape:window-height="1017"
     inkscape:window-x="1352"
     inkscape:window-y="-8"
     inkscape:window-maximized="1"
     inkscape:current-layer="Layer_1"
     inkscape:showpageshadow="2"
     inkscape:deskcolor="#d1d1d1" /><path
     d="m 24.396848,21.278259 c -0.244938,0.124889 -0.540946,0.212453 -0.915295,0.212453 -0.762581,0 -1.934714,-0.301453 -2.746384,-1.227343 -0.811666,0.92589 -1.983306,1.227343 -2.745887,1.227343 -0.762582,0 -1.934219,-0.301453 -2.746383,-1.227343 -0.811668,0.92589 -1.983306,1.227343 -2.745887,1.227343 -0.762582,0 -1.93422,-0.301453 -2.7463827,-1.227343 -0.811668,0.92589 -1.9833065,1.227343 -2.7458878,1.227343 -0.7625814,0 -1.9342194,-0.301453 -2.7458874,-1.227343 -0.811668,0.92589 -1.9838021,1.227343 -2.7463833,1.227343 -0.3421203,0 -0.64011209,-0.04449 -0.9152958,-0.105508"
     fill="none"
     stroke="#000000"
     stroke-linecap="round"
     stroke-linejoin="round"
     stroke-miterlimit="10"
     stroke-width="1.1931"
     id="path4"
     style="stroke:#fcfcfc" /><path
     d="m 24.396848,24.149238 c -0.244938,0.124888 -0.540946,0.212453 -0.915295,0.212453 -0.762581,0 -1.934714,-0.301454 -2.746384,-1.227344 -0.811666,0.92589 -1.983306,1.227344 -2.745887,1.227344 -0.762582,0 -1.934219,-0.301454 -2.746383,-1.227344 -0.811668,0.92589 -1.983306,1.227344 -2.745887,1.227344 -0.762582,0 -1.93422,-0.301454 -2.7463827,-1.227344 -0.811668,0.92589 -1.9833065,1.227344 -2.7458878,1.227344 -0.7625814,0 -1.9342194,-0.301454 -2.7458874,-1.227344 -0.811668,0.92589 -1.9838021,1.227344 -2.7463833,1.227344 -0.3421203,0 -0.64011209,-0.0445 -0.9152958,-0.105509"
     fill="none"
     stroke="#000000"
     stroke-linecap="round"
     stroke-linejoin="round"
     stroke-miterlimit="10"
     stroke-width="1.1931"
     id="path6"
     style="stroke:#fcfcfc" /><path
     d="m 21.917716,11.519803 c 0,0.659607 -0.455665,0.681857 -0.455665,0.681857 h -0.99909 c 0,0 -0.528552,-0.04307 -0.528552,-0.702672 0,-0.383993 0,-0.937375 0,-0.937375 0,0 0.01687,-0.277049 0.323775,-0.277049 0.307414,0 0.337163,0.277049 0.337163,0.277049 v 0.574195 c 0,0 0.03075,0.277769 0.323774,0.277769 0.293034,0 0.337658,-0.277769 0.337658,-0.277769 v -0.574195 c 0,0 0.03075,-0.277049 0.338155,-0.277049 0.307906,0 0.322782,0.277049 0.322782,0.277049 0,0 0,0.596446 0,0.95819 z"
     id="path8"
     style="fill:none;stroke:#fcfcfc;stroke-width:0.596554" /><polyline
     fill="none"
     points="  38.766,25.883 30,16 22,16 20,22 15,22 10,16 6,16 8,21 4.607,26.062 "
     stroke="#000000"
     stroke-linecap="round"
     stroke-linejoin="round"
     stroke-miterlimit="10"
     stroke-width="2"
     id="polyline10"
     style="stroke:#fcfcfc"
     transform="matrix(0.49582654,0,0,0.71774468,0.10134845,-10.76617)" /><line
     fill="none"
     stroke="#000000"
     stroke-linecap="round"
     stroke-linejoin="round"
     stroke-miterlimit="10"
     stroke-width="1.1931"
     x1="3.2002647"
     x2="18.137037"
     y1="8.612936"
     y2="8.612936"
     id="line12"
     style="stroke:#fcfcfc" /><path
     d="M 16.286614,21.051452 C 19.702363,20.1069 23.391808,15.930344 24.361645,9.6414651 24.421141,9.2488589 24.419657,8.8153404 24.246117,8.5024035 24.071586,8.1880312 23.68385,7.8951921 23.405195,7.8951921 H 18.942757 L 16.959451,12.20166 H 3.5721343 L 2.5804812,7.8951921 h -0.991653 c -0.5062389,0 -0.9916532,0.703389 -0.9916532,1.4354894 V 13.30627 c 0,3.658344 1.5648286,6.133845 3.0409042,7.258552"
     fill="none"
     stroke="#000000"
     stroke-linecap="round"
     stroke-linejoin="round"
     stroke-miterlimit="10"
     stroke-width="1.19435"
     id="path14"
     style="stroke:#fcfcfc" /><line
     fill="none"
     stroke="#000000"
     stroke-linecap="round"
     stroke-linejoin="round"
     stroke-miterlimit="10"
     stroke-width="1.1931"
     x1="3.9851582"
     x2="17.476101"
     y1="5.0242128"
     y2="5.0242128"
     id="line16"
     style="stroke:#fcfcfc" /></svg>
