<?xml version="1.0" encoding="UTF-8" standalone="no"?>
<svg
   version="1.0"
   width="99.999962pt"
   height="120.53439pt"
   viewBox="0 0 99.999959 120.53439"
   preserveAspectRatio="xMidYMid"
   id="svg8"
   sodipodi:docname="anchor.svg"
   inkscape:version="1.2.1 (9c6d41e410, 2022-07-14)"
   xmlns:inkscape="http://www.inkscape.org/namespaces/inkscape"
   xmlns:sodipodi="http://sodipodi.sourceforge.net/DTD/sodipodi-0.dtd"
   xmlns="http://www.w3.org/2000/svg"
   xmlns:svg="http://www.w3.org/2000/svg">
  <defs
     id="defs12" />
  <sodipodi:namedview
     id="namedview10"
     pagecolor="#ffffff"
     bordercolor="#000000"
     borderopacity="0.25"
     inkscape:showpageshadow="2"
     inkscape:pageopacity="0.0"
     inkscape:pagecheckerboard="true"
     inkscape:deskcolor="#d1d1d1"
     inkscape:document-units="pt"
     showgrid="false"
     inkscape:zoom="5.0649444"
     inkscape:cx="66.634493"
     inkscape:cy="80.356262"
     inkscape:window-width="1920"
     inkscape:window-height="1017"
     inkscape:window-x="-8"
     inkscape:window-y="-8"
     inkscape:window-maximized="1"
     inkscape:current-layer="svg8" />
  <metadata
     id="metadata2">
Created by potrace 1.15, written by Peter Selinger 2001-2017
</metadata>
  <g
     transform="matrix(0.01032052,0,0,-0.01032052,-16.422588,127.10845)"
     fill="#000000"
     stroke="none"
     id="g6"
     style="opacity:0.05">
    <path
       d="m 8790,12314 c -518,-91 -873,-367 -1115,-869 -252,-521 -236,-1033 45,-1410 32,-44 67,-90 76,-102 9,-14 14,-32 10,-46 -7,-31 -57,-103 -110,-161 l -45,-49 -53,6 c -193,20 -895,349 -1653,776 -404,227 -358,206 -455,206 -78,0 -90,-3 -148,-34 -212,-115 -305,-402 -288,-891 10,-315 25,-382 100,-448 42,-37 91,-52 169,-52 213,0 550,-148 962,-423 191,-127 466,-338 476,-365 33,-85 -176,-579 -451,-1067 -352,-624 -945,-1542 -1470,-2275 -53,-74 -109,-153 -123,-175 -45,-66 -143,-161 -221,-213 -193,-129 -379,-128 -578,4 -207,137 -429,439 -544,743 -30,79 -31,117 -4,131 42,22 173,29 331,18 147,-10 158,-10 201,9 65,29 101,81 106,151 4,61 -2,76 -67,179 -77,121 -110,393 -91,754 10,207 39,485 66,644 32,183 -13,274 -153,310 -174,46 -494,-31 -743,-177 -457,-270 -928,-829 -1335,-1588 -79,-146 -90,-172 -93,-226 -5,-75 15,-123 66,-162 30,-23 45,-27 103,-27 64,0 71,3 129,44 72,50 119,60 174,37 l 39,-16 -6,-48 c -4,-26 -13,-89 -21,-141 -56,-355 -45,-774 30,-1156 75,-385 180,-665 421,-1125 207,-394 549,-854 1008,-1358 258,-284 287,-318 346,-406 104,-155 165,-300 193,-462 26,-149 89,-218 197,-217 53,1 72,9 154,71 75,56 144,87 254,114 119,30 420,32 637,4 144,-19 176,-19 635,-8 511,13 1048,35 1262,52 449,37 881,201 1217,463 87,68 268,245 340,333 84,102 194,269 257,392 31,59 59,108 63,110 11,4 40,-49 84,-153 48,-111 75,-148 130,-174 83,-41 153,-24 263,61 183,143 341,414 418,720 60,233 69,333 70,713 0,364 -7,451 -56,770 -25,162 -67,352 -85,386 -20,40 -79,87 -123,99 -77,20 -143,-12 -231,-112 -246,-282 -515,-440 -880,-519 -86,-18 -149,-23 -352,-28 l -246,-6 -39,-31 c -47,-37 -73,-87 -73,-137 0,-89 55,-148 187,-201 148,-59 223,-146 208,-242 -10,-68 -62,-161 -108,-195 -22,-16 -81,-49 -131,-73 -198,-96 -387,-132 -531,-103 -212,44 -384,196 -515,457 -58,116 -101,243 -107,316 -16,190 135,607 453,1249 252,510 488,937 1024,1850 60,103 345,570 373,612 33,49 64,58 153,44 260,-42 719,-275 1312,-666 160,-106 209,-123 299,-106 101,20 255,113 349,212 149,159 248,352 314,614 39,154 41,250 5,311 -34,57 -75,80 -205,114 -259,68 -677,272 -1330,650 -294,170 -614,367 -624,384 -13,19 68,185 117,241 30,35 36,37 117,46 186,20 295,51 455,129 174,84 369,242 503,407 135,166 278,428 340,623 53,166 65,242 65,405 0,129 -3,165 -26,256 -71,287 -234,534 -501,757 -142,118 -267,198 -481,305 -163,82 -214,102 -345,133 -92,23 -130,26 -315,29 -115,2 -221,1 -235,-1 z"
       id="path4" />
  </g>
</svg>
