<?xml version="1.0" encoding="UTF-8" standalone="no"?>
<!-- Uploaded to: SVG Repo, www.svgrepo.com, Generator: SVG Repo Mixer Tools -->

<svg
   fill="#000000"
   height="25"
   width="25"
   version="1.1"
   id="Capa_1"
   viewBox="0 0 14.416656 14.416656"
   xml:space="preserve"
   sodipodi:docname="helm-svgrepo-com.svg"
   inkscape:version="1.2.1 (9c6d41e410, 2022-07-14)"
   xmlns:inkscape="http://www.inkscape.org/namespaces/inkscape"
   xmlns:sodipodi="http://sodipodi.sourceforge.net/DTD/sodipodi-0.dtd"
   xmlns="http://www.w3.org/2000/svg"
   xmlns:svg="http://www.w3.org/2000/svg"><defs
   id="defs7" /><sodipodi:namedview
   id="namedview5"
   pagecolor="#ffffff"
   bordercolor="#000000"
   borderopacity="0.25"
   inkscape:showpageshadow="2"
   inkscape:pageopacity="0.0"
   inkscape:pagecheckerboard="true"
   inkscape:deskcolor="#d1d1d1"
   showgrid="false"
   inkscape:zoom="32.56"
   inkscape:cx="12.484644"
   inkscape:cy="12.5"
   inkscape:window-width="1920"
   inkscape:window-height="1017"
   inkscape:window-x="-8"
   inkscape:window-y="-8"
   inkscape:window-maximized="1"
   inkscape:current-layer="Capa_1" />
<path
   d="M 13.791596,6.5833295 H 12.916194 C 12.795257,5.4663007 12.353978,4.4455216 11.686074,3.6144297 L 12.305322,2.995181 c 0.244061,-0.2440932 0.244061,-0.6398111 0,-0.8838731 -0.244093,-0.2440932 -0.639841,-0.2440932 -0.883903,0 L 10.802172,2.7305566 C 9.9710818,2.0626518 8.9503049,1.6214027 7.8332785,1.5004655 V 0.62499865 C 7.8332785,0.27981189 7.5534673,0 7.2082813,0 6.8630952,0 6.583284,0.27981189 6.583284,0.62499865 V 1.500403 C 5.4662576,1.6213402 4.4454495,2.0626205 3.6143593,2.7305253 L 2.9951433,2.1112767 c -0.2440927,-0.2440932 -0.6398098,-0.2440932 -0.8838712,0 -0.2440614,0.2440932 -0.2440927,0.6398111 0,0.8838731 L 2.7305194,3.6143984 C 2.0626161,4.4454904 1.6213367,5.4662694 1.5003997,6.5833295 H 0.62499729 C 0.27981129,6.5833295 0,6.8631414 0,7.2083281 0,7.5535149 0.27981129,7.8333268 0.62499729,7.8333268 H 1.5003997 c 0.120937,1.1170288 0.5622164,2.1378391 1.2301197,2.9689312 l -0.6192473,0.619248 c -0.2440927,0.244094 -0.2440927,0.639812 0,0.883874 0.1220307,0.122031 0.2819675,0.183062 0.4419356,0.183062 0.159968,0 0.3199048,-0.06103 0.4419356,-0.183062 l 0.6192473,-0.619249 c 0.8310901,0.667905 1.851867,1.109185 2.9689246,1.230122 v 0.875405 c 0,0.345186 0.2798113,0.624998 0.6249973,0.624998 0.345186,0 0.6249973,-0.279812 0.6249973,-0.624998 v -0.875436 c 1.1170264,-0.120937 2.1378345,-0.562218 2.9689242,-1.230091 l 0.619248,0.619249 c 0.12203,0.122031 0.281999,0.183062 0.441967,0.183062 0.159968,0 0.319904,-0.06103 0.441966,-0.183062 0.244062,-0.244094 0.244062,-0.639812 0,-0.883874 l -0.619247,-0.619248 c 0.667903,-0.8310921 1.109152,-1.8518712 1.230089,-2.9689 h 0.875402 c 0.345186,0 0.624997,-0.2798119 0.624997,-0.6249986 0,-0.3451868 -0.279874,-0.6250299 -0.62506,-0.6250299 z m -2.134584,0 H 9.910707 C 9.8408636,6.2800489 9.7211141,5.9958933 9.5608336,5.7397063 L 10.795953,4.504584 c 0.461436,0.6096237 0.756247,1.3213409 0.861059,2.0787455 z M 9.9120508,3.6206484 8.6769311,4.8557707 C 8.4207447,4.6954898 8.1365585,4.5757401 7.8333098,4.5058965 V 2.7595878 C 8.5906815,2.8644 9.3023972,3.1592119 9.9120508,3.6206484 Z M 6.5833152,2.7595878 V 4.5058965 C 6.2800353,4.5757401 5.9958803,4.6954898 5.7396626,4.8557707 L 4.504543,3.6206484 C 5.1141966,3.1592119 5.8259122,2.8644 6.5833152,2.7595878 Z M 3.6206406,4.5045215 4.8557602,5.7396438 C 4.6954796,5.995862 4.5757302,6.2800176 4.5058867,6.5832982 H 2.7595818 C 2.8643938,5.8259249 3.1592051,5.1141764 3.6206406,4.5045215 Z M 2.7595818,7.8333268 H 4.5058867 C 4.5757307,8.1366074 4.6954796,8.420763 4.8557602,8.6769812 L 3.6206406,9.9121348 C 3.1592051,9.3024486 2.8643938,8.5907001 2.7595818,7.8333268 Z M 4.5045117,10.795977 5.7396626,9.5608543 C 5.9958803,9.7211352 6.2800353,9.8408849 6.5833152,9.9107285 V 11.657037 C 5.8259122,11.552225 5.1141653,11.257413 4.5045117,10.795977 Z m 3.3287981,0.86106 V 9.9107285 C 8.1365897,9.8408849 8.4207447,9.7211352 8.6769624,9.5608543 L 9.912082,10.795977 c -0.6096848,0.461436 -1.3214005,0.756248 -2.0787722,0.86106 z M 10.795953,9.9121035 9.5608023,8.6769812 C 9.7210829,8.420763 9.8408323,8.1366074 9.9106758,7.8333268 H 11.656981 C 11.5522,8.5907001 11.257389,9.3024486 10.795953,9.9121035 Z"
   id="path2"
   style="stroke-width:0.0312498;opacity:0.05;fill:#000000;fill-opacity:1" />
</svg>
