<?xml version="1.0" encoding="UTF-8" standalone="no"?>
<!-- Creator: CorelDRAW -->

<svg
   xml:space="preserve"
   width="0.25in"
   height="0.25in"
   version="1.1"
   style="clip-rule:evenodd;fill-rule:evenodd;image-rendering:optimizeQuality;shape-rendering:geometricPrecision;text-rendering:geometricPrecision"
   viewBox="0 0 250 250"
   id="svg66"
   sodipodi:docname="reservations.svg"
   inkscape:version="1.2.1 (9c6d41e410, 2022-07-14)"
   xmlns:inkscape="http://www.inkscape.org/namespaces/inkscape"
   xmlns:sodipodi="http://sodipodi.sourceforge.net/DTD/sodipodi-0.dtd"
   xmlns="http://www.w3.org/2000/svg"
   xmlns:svg="http://www.w3.org/2000/svg"><sodipodi:namedview
   id="namedview68"
   pagecolor="#ffffff"
   bordercolor="#000000"
   borderopacity="0.25"
   inkscape:showpageshadow="2"
   inkscape:pageopacity="0.0"
   inkscape:pagecheckerboard="true"
   inkscape:deskcolor="#d1d1d1"
   inkscape:document-units="in"
   showgrid="false"
   inkscape:zoom="33.916667"
   inkscape:cx="12.014742"
   inkscape:cy="12.029484"
   inkscape:window-width="1920"
   inkscape:window-height="1017"
   inkscape:window-x="1272"
   inkscape:window-y="-8"
   inkscape:window-maximized="1"
   inkscape:current-layer="Layer_x0020_1" />
 <defs
   id="defs4">
  <style
   type="text/css"
   id="style2">
   <![CDATA[
    .fil0 {fill:black}
    .fil3 {fill:#6FABB9}
    .fil2 {fill:#89D3E5}
    .fil4 {fill:#D6E3FF}
    .fil1 {fill:#FB505A}
   ]]>
  </style>
 </defs>
 <g
   id="Layer_x0020_1"
   inkscape:label="Layer 1"
   inkscape:groupmode="layer"
   transform="translate(-70.27,-0.30249999)">
  <metadata
   id="CorelCorpID_0Corel-Layer" />
  
  
  
  
  
  
  
  
  
  
  
  
  
  
  
  
  
  
  
  
  
  
  
  
  
  
  
  
  <rect
   style="fill:#aa0000;fill-opacity:1;stroke-width:23.9553"
   id="rect1020"
   width="239.55774"
   height="45.372311"
   x="75.798256"
   y="5.0918374" /><path
   class="fil0"
   d="M 305.1211,250.30251 H 85.417307 C 77.06386,250.30251 70.27,243.52572 70.27,235.19716 V 15.40627 C 70.27,7.0777109 77.06386,0.30249996 85.417307,0.30249996 H 305.1211 c 8.35345,0 15.1489,6.77521094 15.1489,15.10377004 v 219.79089 c 0,8.32856 -6.79705,15.10535 -15.1489,15.10535 z M 85.417307,6.6686838 c -4.833602,0 -8.763696,3.9183852 -8.763696,8.7375862 v 219.79089 c 0,4.8192 3.930094,8.73758 8.763696,8.73758 H 305.1211 c 4.8336,0 8.7621,-3.91838 8.7621,-8.73758 V 15.40627 c 0,-4.819201 -3.9285,-8.7375862 -8.7621,-8.7375862 z"
   id="path7"
   style="stroke-width:0.159392" /><path
   class="fil0"
   d="M 317.07421,54.165185 H 73.4642 c -4.203063,0 -4.203063,-6.366183 0,-6.366183 h 243.6132 c 4.20785,0 4.20466,6.366183 -0.003,6.366183 z"
   id="path9"
   style="stroke-width:0.159392" /><path
   class="fil0"
   d="M 260.65931,232.04908 H 96.722316 c -1.762317,0 -3.192604,-1.42762 -3.192604,-3.1831 V 50.982093 c 0,-1.757066 1.430287,-3.183091 3.192604,-3.183091 H 293.81769 c 1.76232,0 3.1926,1.426025 3.1926,3.183091 V 195.80321 c 0,0.84512 -0.33682,1.65361 -0.93543,2.25204 l -33.15838,33.06277 c -0.59861,0.59206 -1.40953,0.93106 -2.25557,0.93106 z M 99.914919,225.6813 H 259.33598 l 31.28751,-31.19589 V 54.166776 H 99.914919 V 225.6829 Z"
   id="path11"
   style="stroke-width:0.159392" /><path
   class="fil0"
   d="m 260.65931,232.04908 c -1.75114,0 -3.1958,-1.41808 -3.1958,-3.1831 l -0.003,-33.06435 c 0,-1.75707 1.43348,-3.18469 3.1958,-3.18469 h 33.16157 c 2.82386,0 4.26851,3.42818 2.25557,5.43513 l -33.15838,33.06437 c -0.60819,0.60796 -1.42709,0.93264 -2.25557,0.93264 z m 3.1926,-33.06437 v 22.19888 l 22.26043,-22.19888 z"
   id="path13"
   style="stroke-width:0.159392" /><path
   class="fil0"
   d="m 211.14682,111.50858 h -31.75683 c -1.76231,0 -3.1926,-1.42602 -3.1926,-3.18309 V 76.660093 c 0,-1.757067 1.43029,-3.183091 3.1926,-3.183091 h 31.75683 c 1.76232,0 3.1926,1.426024 3.1926,3.183091 v 31.665397 c 0.003,1.75707 -1.43028,3.18309 -3.1926,3.18309 z M 182.5826,105.1424 h 25.37162 V 79.843184 H 182.5826 Z"
   id="path25"
   style="stroke-width:0.159392" /><path
   class="fil0"
   d="m 152.5817,111.50858 h -31.76002 c -1.76231,0 -3.1926,-1.42602 -3.1926,-3.18309 V 76.660093 c 0,-1.757067 1.43029,-3.183091 3.1926,-3.183091 h 31.76002 c 1.76232,0 3.19261,1.426024 3.19261,3.183091 v 31.665397 c 0,1.75707 -1.4271,3.18309 -3.19261,3.18309 z M 124.01429,105.1424 H 149.3891 V 79.843184 h -25.37481 z"
   id="path27"
   style="stroke-width:0.159392" /><path
   class="fil0"
   d="m 269.71673,111.50858 h -31.76002 c -1.76232,0 -3.19261,-1.42602 -3.19261,-3.18309 V 76.660093 c 0,-1.757067 1.43189,-3.183091 3.19261,-3.183091 h 31.76002 c 1.76231,0 3.1926,1.426024 3.1926,3.183091 v 31.665397 c 0,1.75707 -1.43029,3.18309 -3.1926,3.18309 z m -28.56742,-6.36618 h 25.37162 V 79.843184 h -25.37162 z"
   id="path29"
   style="stroke-width:0.159392" /><path
   class="fil0"
   d="m 211.14682,160.87038 h -31.75683 c -1.76231,0 -3.1926,-1.42762 -3.1926,-3.1831 v -31.66857 c 0,-1.75707 1.43029,-3.1831 3.1926,-3.1831 h 31.75683 c 1.76232,0 3.1926,1.42762 3.1926,3.1831 v 31.66539 c 0.003,1.75707 -1.43028,3.18468 -3.1926,3.18468 z M 182.5826,154.5026 h 25.37162 V 129.20339 H 182.5826 Z"
   id="path31"
   style="stroke-width:0.159392" /><path
   class="fil0"
   d="m 152.5817,160.87038 h -31.76002 c -1.76231,0 -3.1926,-1.42762 -3.1926,-3.1831 v -31.66857 c 0,-1.75707 1.43029,-3.1831 3.1926,-3.1831 h 31.76002 c 1.76232,0 3.19261,1.42762 3.19261,3.1831 v 31.66539 c 0,1.75707 -1.4271,3.18468 -3.19261,3.18468 z m -28.56741,-6.36778 h 25.37481 v -25.29921 h -25.37481 z"
   id="path33"
   style="stroke-width:0.159392" /><path
   class="fil0"
   d="m 269.71673,160.87038 h -31.76002 c -1.76232,0 -3.19261,-1.42762 -3.19261,-3.1831 v -31.66857 c 0,-1.75707 1.43189,-3.1831 3.19261,-3.1831 h 31.76002 c 1.76231,0 3.1926,1.42762 3.1926,3.1831 v 31.66539 c 0,1.75707 -1.43029,3.18468 -3.1926,3.18468 z m -28.56742,-6.36778 h 25.37162 v -25.29921 h -25.37162 z"
   id="path35"
   style="stroke-width:0.159392" /><path
   class="fil0"
   d="m 211.14682,210.22898 h -31.75683 c -1.76231,0 -3.1926,-1.42761 -3.1926,-3.18308 v -31.6654 c 0,-1.75707 1.43029,-3.1831 3.1926,-3.1831 h 31.75683 c 1.76232,0 3.1926,1.42763 3.1926,3.1831 v 31.6654 c 0.003,1.75547 -1.43028,3.18308 -3.1926,3.18308 z m -28.56422,-6.36777 h 25.37162 v -25.29762 l -25.37162,0.001 z"
   id="path37"
   style="stroke-width:0.159392" /><path
   class="fil0"
   d="m 152.5817,210.22898 h -31.76002 c -1.76231,0 -3.1926,-1.42761 -3.1926,-3.18308 v -31.6654 c 0,-1.75707 1.43029,-3.1831 3.1926,-3.1831 h 31.76002 c 1.76232,0 3.19261,1.42763 3.19261,3.1831 v 31.6654 c 0,1.75547 -1.4271,3.18308 -3.19261,3.18308 z m -28.56741,-6.36777 h 25.37481 v -25.29762 l -25.37481,0.001 z"
   id="path39"
   style="stroke-width:0.159392" /><path
   class="fil2"
   d="m 214.33942,126.01871 v 31.66539 c 0.003,1.75707 -1.43028,3.18468 -3.1926,3.18468 h -31.75683 c -1.76231,0 -3.1926,-1.42761 -3.1926,-3.18309 v -31.66858 c 0,-1.75707 1.43029,-3.18309 3.1926,-3.18309 h 31.75683 c 1.76232,0 3.1926,1.42762 3.1926,3.18309 z m -3.1926,-14.51013 h -31.75683 c -1.76231,0 -3.1926,-1.42602 -3.1926,-3.18309 V 76.660093 c 0,-1.757067 1.43029,-3.183091 3.1926,-3.183091 h 31.75683 c 1.76232,0 3.1926,1.426024 3.1926,3.183091 v 31.665397 c 0.003,1.75707 -1.43028,3.18309 -3.1926,3.18309 z M 290.62189,54.165185 H 99.913323 V 225.6813 H 257.46192 l -0.003,-29.87967 c 0,-1.75707 1.43348,-3.18469 3.1958,-3.18469 H 290.6203 V 54.165185 Z M 214.33942,175.3805 v 31.6654 c 0.003,1.75547 -1.43028,3.18308 -3.1926,3.18308 h -31.75683 c -1.76231,0 -3.1926,-1.42761 -3.1926,-3.18308 v -31.6654 c 0,-1.75707 1.43029,-3.1831 3.1926,-3.1831 h 31.75683 c 1.76232,0 3.1926,1.42763 3.1926,3.1831 z m 55.37731,-14.51172 h -31.76002 c -1.76232,0 -3.19261,-1.42761 -3.19261,-3.18309 v -31.66858 c 0,-1.75707 1.43189,-3.18309 3.19261,-3.18309 h 31.76002 c 1.76231,0 3.1926,1.42762 3.1926,3.18309 v 31.6654 c 0,1.75707 -1.43029,3.18468 -3.1926,3.18468 z m 0,-49.36179 h -31.76002 c -1.76232,0 -3.19261,-1.42603 -3.19261,-3.1831 V 76.658502 c 0,-1.757067 1.43189,-3.183092 3.19261,-3.183092 h 31.76002 c 1.76231,0 3.1926,1.426025 3.1926,3.183092 v 31.665388 c 0,1.75707 -1.43029,3.1831 -3.1926,3.1831 z M 155.77431,175.3789 v 31.6654 c 0,1.75547 -1.4271,3.18309 -3.19261,3.18309 h -31.76002 c -1.76231,0 -3.1926,-1.42762 -3.1926,-3.18309 v -31.6654 c 0,-1.75706 1.43029,-3.18309 3.1926,-3.18309 h 31.76002 c 1.76232,0 3.19261,1.42762 3.19261,3.18309 z m -3.19261,-14.51171 h -31.76002 c -1.76231,0 -3.1926,-1.42761 -3.1926,-3.18309 v -31.66857 c 0,-1.75707 1.43029,-3.1831 3.1926,-3.1831 h 31.76002 c 1.76232,0 3.19261,1.42761 3.19261,3.1831 v 31.66538 c 0,1.75707 -1.4271,3.18469 -3.19261,3.18469 z m 0,-49.3618 h -31.76002 c -1.76231,0 -3.1926,-1.42601 -3.1926,-3.18308 v -31.6654 c 0,-1.757066 1.43029,-3.183091 3.1926,-3.183091 h 31.76002 c 1.76232,0 3.19261,1.426025 3.19261,3.183091 v 31.6654 c 0,1.75707 -1.4271,3.18308 -3.19261,3.18308 z"
   id="path43"
   style="stroke-width:0.159392" /><polygon
   class="fil3"
   points="1299.69,1104.67 1299.69,945.71 1140.74,945.71 1140.74,1104.67 "
   id="polygon45"
   transform="matrix(0.15963017,0,0,0.15915458,59.052788,-21.312284)" /><polygon
   class="fil3"
   points="1299.69,635.58 1140.74,635.58 1140.74,794.54 1299.69,794.54 "
   id="polygon47"
   transform="matrix(0.15963017,0,0,0.15915458,59.052788,-21.312284)" /><polygon
   class="fil3"
   points="773.85,635.58 773.85,794.54 932.79,794.54 932.79,635.58 "
   id="polygon49"
   transform="matrix(0.15963017,0,0,0.15915458,59.052788,-21.312284)" /><polygon
   class="fil3"
   points="773.85,1104.67 932.79,1104.67 932.79,945.71 773.85,945.71 "
   id="polygon51"
   transform="matrix(0.15963017,0,0,0.15915458,59.052788,-21.312284)" /><polygon
   class="fil3"
   points="773.85,1414.81 932.79,1414.81 932.79,1255.85 773.85,1255.86 "
   id="polygon53"
   transform="matrix(0.15963017,0,0,0.15915458,59.052788,-21.312284)" /><polygon
   class="fil3"
   points="406.95,1255.86 406.95,1414.81 565.91,1414.81 565.91,1255.85 "
   id="polygon55"
   transform="matrix(0.15963017,0,0,0.15915458,59.052788,-21.312284)" /><polygon
   class="fil3"
   points="565.91,945.71 406.95,945.71 406.95,1104.67 565.91,1104.67 "
   id="polygon57"
   transform="matrix(0.15963017,0,0,0.15915458,59.052788,-21.312284)" /><polygon
   class="fil3"
   points="565.91,635.58 406.95,635.58 406.95,794.54 565.91,794.54 "
   id="polygon59"
   transform="matrix(0.15963017,0,0,0.15915458,59.052788,-21.312284)" /><path
   class="fil4"
   d="M 93.529712,228.86758 V 54.166776 H 76.655207 V 235.19716 c 0,4.8192 3.930095,8.73758 8.763696,8.73758 H 305.1227 c 4.8336,0 8.7621,-3.91838 8.7621,-8.73758 V 54.166776 H 297.01189 V 195.71568 c 0.0176,0.8674 -0.27137,1.67908 -0.93543,2.34117 l -33.51915,33.36993 -1.8964,0.62389 H 96.723912 c -1.762317,0 -3.192603,-1.42762 -3.192603,-3.18309 z"
   id="path61"
   style="fill:#d40000;stroke-width:0.159392" /><polygon
   class="fil3"
   points="1282.95,1523.65 1422.41,1384.17 1282.95,1384.17 "
   id="polygon63"
   transform="matrix(0.15963017,0,0,0.15915458,59.052788,-21.312284)" />
 </g>
</svg>
